<svg id="Component_70_1" data-name="Component 70 – 1" xmlns="http://www.w3.org/2000/svg" width="556.453" height="559.921" viewBox="0 0 556.453 559.921">
  <g id="Group_9759" data-name="Group 9759" transform="translate(31.164 11.607)">
    <g id="Group_9727" data-name="Group 9727" transform="translate(382.14 384.535)">
      <g id="Group_9725" data-name="Group 9725">
        <path id="Path_9936" data-name="Path 9936" d="M790.22,776.4l-11.059,17.394c-4.03,6.339-2.154,14.443,4.013,17.338l73.395,34.452c5.236,2.458,11.767.253,15.189-5.129s2.648-12.232-1.8-15.931l-62.336-51.845C802.385,768.321,794.25,770.06,790.22,776.4Z" transform="translate(-777.029 -770.269)" fill="#2d3135"/>
        <path id="Path_9937" data-name="Path 9937" d="M832.166,793.089l-24.542-20.412c-5.238-4.357-13.373-2.617-17.4,3.722l-11.059,17.394c-4.03,6.339-2.154,14.443,4.013,17.338l41.8,19.618A199.763,199.763,0,0,0,832.166,793.089Z" transform="translate(-777.029 -770.269)" fill="#2d3135" opacity="0.5" style="mix-blend-mode: multiply;isolation: isolate"/>
      </g>
      <g id="Group_9726" data-name="Group 9726" transform="translate(55.646 32.743)" style="mix-blend-mode: screen;isolation: isolate">
        <path id="Path_9938" data-name="Path 9938" d="M892.811,843.458a1.338,1.338,0,0,1-1.225-.172L863.1,823.019a1.342,1.342,0,0,1,1.556-2.187L893.141,841.1a1.342,1.342,0,0,1-.331,2.358Z" transform="translate(-862.537 -820.583)" fill="#2d3135"/>
      </g>
    </g>
    <g id="Group_9730" data-name="Group 9730" transform="translate(171.343 447.127)">
      <g id="Group_9728" data-name="Group 9728">
        <path id="Path_9939" data-name="Path 9939" d="M491.908,867.551l18.971,8.06c6.914,2.937,9.963,10.677,6.523,16.558l-40.932,69.987c-2.92,4.993-9.551,6.879-15.42,4.386s-9.115-8.575-7.549-14.144l21.961-78.047C477.307,867.792,484.994,864.613,491.908,867.551Z" transform="translate(-453.108 -866.452)" fill="#2d3135"/>
        <path id="Path_9940" data-name="Path 9940" d="M474.172,905.079l8.646-30.728c1.846-6.558,9.532-9.737,16.446-6.8l18.971,8.06c6.913,2.937,9.961,10.677,6.522,16.558l-23.309,39.855A199.734,199.734,0,0,1,474.172,905.079Z" transform="translate(-460.464 -866.452)" fill="#2d3135" opacity="0.5" style="mix-blend-mode: multiply;isolation: isolate"/>
      </g>
      <g id="Group_9729" data-name="Group 9729" transform="translate(5.25 47.614)" style="mix-blend-mode: screen;isolation: isolate">
        <path id="Path_9941" data-name="Path 9941" d="M462.866,975.1a1.34,1.34,0,0,0,.912-.836l11.975-32.844a1.342,1.342,0,0,0-2.522-.92l-11.975,32.844a1.342,1.342,0,0,0,1.609,1.756Z" transform="translate(-461.175 -939.618)" fill="#2d3135"/>
      </g>
    </g>
    <g id="Group_9736" data-name="Group 9736" transform="translate(241.078)">
      <g id="Group_9735" data-name="Group 9735" transform="translate(0.386)">
        <g id="Group_9731" data-name="Group 9731" transform="translate(115.751)">
          <path id="Path_9942" data-name="Path 9942" d="M759.144,218.793l8.8-24.077a11.066,11.066,0,0,0-5.936-14.48h0a11.066,11.066,0,0,0-14.48,5.936l-8.8,24.078Z" transform="translate(-738.729 -179.376)" fill="#2d3135"/>
          <path id="Path_9943" data-name="Path 9943" d="M771.929,180.326a11.041,11.041,0,0,0-2.423-.694c3.685,2.774,5.069,8.107,3.043,12.948l-5.414,12.935,5.317,2.226,5.414-12.936A11.065,11.065,0,0,0,771.929,180.326Z" transform="translate(-748.649 -179.465)" fill="#2d3135" opacity="0.3" style="mix-blend-mode: multiply;isolation: isolate"/>
          <path id="Path_9944" data-name="Path 9944" d="M760.465,185.234c.214,1.056,1.734,1.637,3.393,1.3s2.832-1.466,2.617-2.521-1.734-1.637-3.393-1.3S760.251,184.179,760.465,185.234Z" transform="translate(-746.311 -180.508)" fill="#fff"/>
        </g>
        <path id="Path_9945" data-name="Path 9945" d="M564.164,248.3l147.218,60.575,39.2,16.121A100.955,100.955,0,0,0,704.9,203.621q-2.508-1.421-5.122-2.694-2.678-1.319-5.461-2.479c-.46-.2-.927-.387-1.393-.566-.388-.158-.775-.308-1.162-.457s-.762-.293-1.138-.435c-.425-.16-.839-.313-1.261-.456-.679-.245-1.349-.484-2.034-.709-.46-.153-.929-.3-1.4-.456s-.929-.3-1.395-.438A100.945,100.945,0,0,0,564.164,248.3Z" transform="translate(-562.014 -183.296)" fill="#f7b90d"/>
        <g id="Group_9732" data-name="Group 9732" transform="translate(0 11.222)" opacity="0.3" style="mix-blend-mode: multiply;isolation: isolate">
          <path id="Path_9946" data-name="Path 9946" d="M561.081,285.928a6.078,6.078,0,0,0-.221.676A4.854,4.854,0,0,1,561.081,285.928Z" transform="translate(-560.86 -227.809)" fill="#f7b90d"/>
          <path id="Path_9947" data-name="Path 9947" d="M746.947,196.62c.427.26.854.52,1.274.791a65.5,65.5,0,0,1,13.124,11.037q2.194,2.375,4.168,4.969c18.41,24.114,22.993,61.462,9.7,97.557l39.2,16.121a100.955,100.955,0,0,0-45.679-121.37q-2.508-1.421-5.122-2.694-2.678-1.319-5.461-2.479c-.46-.2-.927-.387-1.393-.566-.388-.158-.775-.308-1.162-.457s-.762-.293-1.138-.435c-.425-.16-.839-.313-1.261-.456-.679-.245-1.349-.484-2.034-.709-.46-.153-.929-.3-1.4-.456s-.926-.287-1.393-.43Z" transform="translate(-625.848 -196.62)" fill="#f7b90d"/>
        </g>
        <g id="Group_9733" data-name="Group 9733" transform="translate(115.671 17.692)" opacity="0.5" style="mix-blend-mode: screen;isolation: isolate">
          <path id="Path_9948" data-name="Path 9948" d="M738.681,212.3c.5,2.477,3.366,3.987,6.393,3.372s5.074-3.122,4.571-5.6-3.366-3.987-6.393-3.372S738.178,209.822,738.681,212.3Z" transform="translate(-738.605 -206.562)" fill="#f7b90d"/>
        </g>
        <g id="Group_9734" data-name="Group 9734" transform="translate(16.263 13.862)" opacity="0.5" style="mix-blend-mode: screen;isolation: isolate">
          <path id="Path_9949" data-name="Path 9949" d="M590.68,243.263a4.008,4.008,0,0,0,2.4-1.5c28.473-37.337,80.474-32.835,81-32.784a4.026,4.026,0,0,0,.776-8.015c-2.31-.225-56.943-5.042-88.175,35.916a4.026,4.026,0,0,0,4,6.387Z" transform="translate(-585.85 -200.677)" fill="#f7b90d"/>
        </g>
      </g>
      <ellipse id="Ellipse_331" data-name="Ellipse 331" cx="7.055" cy="100.512" rx="7.055" ry="100.512" transform="translate(0 71.74) rotate(-67.719)" fill="#dd8c0b"/>
      <path id="Path_9950" data-name="Path 9950" d="M683.544,326.2q-4.411-1.8-8.719-3.548l-3.921,8.395-2.039,4.353-37.242,79.659,19.052,8.909,37.664-80.6,1.627-3.476,4.323-9.242Q689.007,328.448,683.544,326.2Z" transform="translate(-585.187 -229.413)" fill="#2d3135"/>
      <path id="Path_9951" data-name="Path 9951" d="M696.917,322.654l-2.035,4.357a207.646,207.646,0,0,1,17.066,13.123l.11-.235,4.323-9.242q-5.282-2.209-10.745-4.455Q701.225,324.4,696.917,322.654Z" transform="translate(-607.279 -229.413)" fill="#2d3135" opacity="0.5" style="mix-blend-mode: multiply;isolation: isolate"/>
    </g>
    <g id="Group_9742" data-name="Group 9742" transform="translate(0 78.612)">
      <g id="Group_9741" data-name="Group 9741">
        <g id="Group_9737" data-name="Group 9737" transform="translate(0.649 33.289)">
          <path id="Path_9952" data-name="Path 9952" d="M216.792,386.546l-20.9-14.845a11.065,11.065,0,0,1-3.318-15.293h0a11.065,11.065,0,0,1,15.292-3.318l20.9,14.845Z" transform="translate(-190.813 -351.328)" fill="#2d3135"/>
          <path id="Path_9953" data-name="Path 9953" d="M192.574,358.089a11.032,11.032,0,0,1,1.6-1.946c-1.464,4.374.419,9.552,4.833,12.392l11.793,7.587-3.118,4.847-11.793-7.587A11.066,11.066,0,0,1,192.574,358.089Z" transform="translate(-190.813 -353.01)" fill="#2d3135" opacity="0.3" style="mix-blend-mode: multiply;isolation: isolate"/>
          <path id="Path_9954" data-name="Path 9954" d="M205.355,355.562c.422.991-.5,2.332-2.059,2.995s-3.163.4-3.585-.593.5-2.332,2.058-2.995S204.934,354.572,205.355,355.562Z" transform="translate(-193.885 -352.472)" fill="#fff"/>
        </g>
        <path id="Path_9955" data-name="Path 9955" d="M341.348,313.784,254.41,447.142l-23.153,35.5a100.953,100.953,0,0,1-31.172-125.879q1.259-2.593,2.692-5.122,1.458-2.6,3.093-5.137c.267-.425.545-.845.826-1.256.23-.351.464-.694.7-1.036s.463-.673.691-1c.26-.373.514-.734.781-1.091.42-.587.837-1.163,1.273-1.738.292-.387.593-.778.894-1.168s.593-.777.9-1.151A100.944,100.944,0,0,1,341.348,313.784Z" transform="translate(-189.815 -300.174)" fill="#f7b90d"/>
        <g id="Group_9738" data-name="Group 9738" transform="translate(0 16.091)" opacity="0.3" style="mix-blend-mode: multiply;isolation: isolate">
          <path id="Path_9956" data-name="Path 9956" d="M428.891,324.9a6.158,6.158,0,0,1,.565.432A4.962,4.962,0,0,0,428.891,324.9Z" transform="translate(-273.308 -324.901)" fill="#f7b90d"/>
          <path id="Path_9957" data-name="Path 9957" d="M212.872,356.628c-.2.456-.409.913-.6,1.374a65.488,65.488,0,0,0-4.555,16.532q-.461,3.2-.617,6.456c-1.5,30.3,15.9,63.667,47.311,85.867l-23.153,35.5a100.953,100.953,0,0,1-31.172-125.879q1.259-2.593,2.692-5.122,1.458-2.6,3.093-5.137c.267-.425.545-.845.826-1.256.23-.351.464-.694.7-1.036s.463-.673.691-1c.26-.373.514-.734.781-1.091.42-.587.837-1.163,1.273-1.738.292-.387.593-.778.894-1.168s.6-.761.9-1.143Z" transform="translate(-189.815 -335.981)" fill="#f7b90d"/>
        </g>
        <g id="Group_9739" data-name="Group 9739" transform="translate(23.786 41.202)" opacity="0.5" style="mix-blend-mode: screen;isolation: isolate">
          <path id="Path_9958" data-name="Path 9958" d="M236.966,366.045c.99,2.327-.512,5.193-3.355,6.4s-5.949.3-6.94-2.021.513-5.192,3.355-6.4S235.976,363.72,236.966,366.045Z" transform="translate(-226.366 -363.488)" fill="#f7b90d"/>
        </g>
        <g id="Group_9740" data-name="Group 9740" transform="translate(36.327 5.571)" opacity="0.5" style="mix-blend-mode: screen;isolation: isolate">
          <path id="Path_9959" data-name="Path 9959" d="M340.39,320.466a4.013,4.013,0,0,1-2.828.121c-44.621-14.616-84.908,18.571-85.309,18.908a4.026,4.026,0,0,1-5.183-6.162c1.775-1.495,44.051-36.433,93-20.4a4.026,4.026,0,0,1,.322,7.531Z" transform="translate(-245.637 -308.735)" fill="#f7b90d"/>
        </g>
      </g>
      <ellipse id="Ellipse_332" data-name="Ellipse 332" cx="100.512" cy="7.055" rx="100.512" ry="7.055" transform="translate(35.605 178.24) rotate(-56.815)" fill="#dd8c0b"/>
      <path id="Path_9960" data-name="Path 9960" d="M325.665,440.577q2.611-3.987,5.172-7.865l7.989,4.693,4.147,2.43,75.838,44.511-10.645,18.14-76.715-45.043L328.14,455.5l-8.8-5.163Q322.438,445.524,325.665,440.577Z" transform="translate(-235.049 -346.461)" fill="#2d3135"/>
      <path id="Path_9961" data-name="Path 9961" d="M330.837,432.712l4.146,2.436a207.531,207.531,0,0,0-6.619,20.485l-.225-.131-8.8-5.163q3.1-4.814,6.325-9.762Q328.277,436.591,330.837,432.712Z" transform="translate(-235.049 -346.461)" fill="#2d3135" opacity="0.5" style="mix-blend-mode: multiply;isolation: isolate"/>
    </g>
    <g id="Group_9758" data-name="Group 9758" transform="translate(66.985 51.392)">
      <g id="Group_9744" data-name="Group 9744" transform="translate(101.29)">
        <rect id="Rectangle_1766" data-name="Rectangle 1766" width="13.124" height="65.645" rx="6.562" transform="translate(21.895 21.456) rotate(-17.267)" fill="#2d3135"/>
        <path id="Path_9962" data-name="Path 9962" d="M487.024,303.3l14.9,3.726-4.52-14.542a6.562,6.562,0,1,0-12.532,3.9Z" transform="translate(-461.029 -268.656)" fill="#2d3135" opacity="0.5" style="mix-blend-mode: multiply;isolation: isolate"/>
        <path id="Path_9963" data-name="Path 9963" d="M501.825,265.74h0a10.51,10.51,0,0,0-13.156-6.917l-32.883,10.221a10.51,10.51,0,1,0,6.24,20.072L494.908,278.9A10.509,10.509,0,0,0,501.825,265.74Z" transform="translate(-448.394 -258.347)" fill="#2d3135"/>
        <g id="Group_9743" data-name="Group 9743" transform="translate(7.031 3.155)">
          <path id="Path_9964" data-name="Path 9964" d="M492.41,264.944l-32.051,9.963a.895.895,0,0,1-.531-1.709l32.051-9.963a.895.895,0,0,1,.531,1.709Z" transform="translate(-459.198 -263.195)" fill="#fff"/>
        </g>
      </g>
      <g id="Group_9746" data-name="Group 9746" transform="translate(0 50.425)">
        <g id="Group_9745" data-name="Group 9745">
          <path id="Path_9965" data-name="Path 9965" d="M683.592,476.453c32.771,105.43-26.129,217.459-131.559,250.23S334.58,700.552,301.81,595.122s26.129-217.459,131.552-250.228S650.821,371.023,683.592,476.453Z" transform="translate(-292.747 -335.832)" fill="#ef1b2b"/>
        </g>
      </g>
      <g id="Group_9748" data-name="Group 9748" transform="translate(0 50.425)">
        <g id="Group_9747" data-name="Group 9747">
          <path id="Path_9966" data-name="Path 9966" d="M683.592,476.453c32.771,105.43-26.129,217.459-131.559,250.23S334.58,700.552,301.81,595.122s26.129-217.459,131.552-250.228S650.821,371.023,683.592,476.453Z" transform="translate(-292.747 -335.832)" fill="#ef1b2b"/>
        </g>
      </g>
      <path id="Path_9967" data-name="Path 9967" d="M306.749,670.669C339.61,776.063,451.691,834.865,557.092,802s164.2-144.944,131.342-250.339Z" transform="translate(-297.637 -360.782)" fill="#ef1b2b" opacity="0.8" style="mix-blend-mode: multiply;isolation: isolate"/>
      <g id="Group_9750" data-name="Group 9750" transform="translate(29.151 79.578)">
        <g id="Group_9749" data-name="Group 9749">
          <circle id="Ellipse_333" data-name="Ellipse 333" cx="170.802" cy="170.802" r="170.802" fill="#fff"/>
        </g>
      </g>
      <g id="Group_9752" data-name="Group 9752" transform="translate(177.619 228.046)">
        <g id="Group_9751" data-name="Group 9751" transform="translate(0 0)">
          <circle id="Ellipse_334" data-name="Ellipse 334" cx="16.265" cy="16.265" r="16.265" transform="translate(0 27.836) rotate(-58.836)" fill="#2d3135"/>
        </g>
      </g>
      <g id="Group_9753" data-name="Group 9753" transform="translate(161.463 144.216)">
        <path id="Path_9968" data-name="Path 9968" d="M581.709,593.724a7.96,7.96,0,0,1-9.965-5.239l-30.524-98.2a7.961,7.961,0,0,1,15.205-4.727l30.524,98.2A7.96,7.96,0,0,1,581.709,593.724Z" transform="translate(-540.858 -479.956)" fill="#2d3135"/>
      </g>
      <g id="Group_9754" data-name="Group 9754" transform="translate(149.96 242.42)">
        <path id="Path_9969" data-name="Path 9969" d="M533.513,691.206a7.963,7.963,0,0,1-8.176-13.05l42.03-44.782a7.961,7.961,0,1,1,11.61,10.9l-42.03,44.781A7.919,7.919,0,0,1,533.513,691.206Z" transform="translate(-523.182 -630.861)" fill="#2d3135"/>
      </g>
      <circle id="Ellipse_335" data-name="Ellipse 335" cx="8.659" cy="8.659" r="8.659" transform="translate(187.718 250.933) rotate(-47.581)" fill="#ed3233"/>
      <g id="Group_9755" data-name="Group 9755" transform="translate(198.223 248.65)">
        <path id="Path_9970" data-name="Path 9970" d="M703.457,707.684a1.724,1.724,0,0,1-1.421-.178L598.17,643.639a1.731,1.731,0,0,1,1.813-2.949l103.866,63.867a1.73,1.73,0,0,1-.392,3.126Z" transform="translate(-597.346 -640.433)" fill="#ed3233"/>
      </g>
      <path id="Path_9971" data-name="Path 9971" d="M369.622,707.049a4.372,4.372,0,1,0,5.472,2.877A4.372,4.372,0,0,0,369.622,707.049Z" transform="translate(-318.52 -414.979)" fill="#2d3135"/>
      <path id="Path_9972" data-name="Path 9972" d="M663.961,868.783a4.372,4.372,0,1,0,2.877-5.472A4.372,4.372,0,0,0,663.961,868.783Z" transform="translate(-422.317 -469.55)" fill="#2d3135"/>
      <path id="Path_9973" data-name="Path 9973" d="M825.695,574.445a4.372,4.372,0,1,0-5.473-2.877A4.372,4.372,0,0,0,825.695,574.445Z" transform="translate(-476.889 -365.753)" fill="#2d3135"/>
      <g id="Group_9756" data-name="Group 9756" transform="translate(47 93.682)">
        <circle id="Ellipse_336" data-name="Ellipse 336" cx="10.837" cy="10.837" r="10.837" transform="translate(94.196 9.878) rotate(-27.113)" fill="#2d3135"/>
        <path id="Path_9974" data-name="Path 9974" d="M432.629,482.559a4.211,4.211,0,1,0,.236,5.95A4.21,4.21,0,0,0,432.629,482.559Z" transform="translate(-386.13 -429.94)" fill="#2d3135"/>
        <path id="Path_9975" data-name="Path 9975" d="M375.613,586.321a4.211,4.211,0,1,0,3.179,5.036A4.212,4.212,0,0,0,375.613,586.321Z" transform="translate(-366.891 -466.531)" fill="#2d3135"/>
        <path id="Path_9976" data-name="Path 9976" d="M439.47,805.95a4.211,4.211,0,1,0,5.951-.235A4.211,4.211,0,0,0,439.47,805.95Z" transform="translate(-390.597 -542.797)" fill="#2d3135"/>
        <path id="Path_9977" data-name="Path 9977" d="M543.233,862.966a4.211,4.211,0,1,0,5.035-3.179A4.211,4.211,0,0,0,543.233,862.966Z" transform="translate(-427.188 -562.034)" fill="#2d3135"/>
        <path id="Path_9978" data-name="Path 9978" d="M762.862,799.109a4.211,4.211,0,1,0-.236-5.951A4.212,4.212,0,0,0,762.862,799.109Z" transform="translate(-503.453 -538.33)" fill="#2d3135"/>
        <path id="Path_9979" data-name="Path 9979" d="M819.877,695.346a4.211,4.211,0,1,0-3.179-5.036A4.211,4.211,0,0,0,819.877,695.346Z" transform="translate(-522.691 -501.737)" fill="#2d3135"/>
        <path id="Path_9980" data-name="Path 9980" d="M756.021,475.718a4.211,4.211,0,1,0-5.951.236A4.211,4.211,0,0,0,756.021,475.718Z" transform="translate(-498.986 -425.473)" fill="#2d3135"/>
        <path id="Path_9981" data-name="Path 9981" d="M652.257,418.7a4.211,4.211,0,1,0-5.035,3.18A4.21,4.21,0,0,0,652.257,418.7Z" transform="translate(-462.394 -406.235)" fill="#2d3135"/>
        <path id="Path_9982" data-name="Path 9982" d="M372.593,694.806a10.837,10.837,0,1,0,13.565,7.132A10.837,10.837,0,0,0,372.593,694.806Z" transform="translate(-364.969 -504.283)" fill="#2d3135"/>
        <circle id="Ellipse_337" data-name="Ellipse 337" cx="10.837" cy="10.837" r="10.837" transform="matrix(0.835, -0.55, 0.55, 0.835, 182.117, 295.715)" fill="#2d3135"/>
        <circle id="Ellipse_338" data-name="Ellipse 338" cx="10.837" cy="10.837" r="10.837" transform="matrix(0.122, -0.993, 0.993, 0.122, 282.994, 121.966)" fill="#2d3135"/>
      </g>
      <g id="Group_9757" data-name="Group 9757" transform="translate(26.786 55.16)" style="mix-blend-mode: screen;isolation: isolate">
        <path id="Path_9983" data-name="Path 9983" d="M600.8,369.065a203.289,203.289,0,0,0-74.15-21.723A197.285,197.285,0,0,0,382.681,392.1a203.408,203.408,0,0,0-48.773,59.925,185.738,185.738,0,0,1,46.8-62.245,188.989,188.989,0,0,1,32.179-22.587,190.8,190.8,0,0,1,74.768-23.234,188.851,188.851,0,0,1,39.312.366A185.835,185.835,0,0,1,600.8,369.065Z" transform="translate(-333.908 -343.109)" fill="#ff3951"/>
      </g>
    </g>
  </g>
  <g id="Group_9772" data-name="Group 9772">
    <g id="Group_9760" data-name="Group 9760" transform="translate(279.919 7.758)">
      <path id="Path_9984" data-name="Path 9984" d="M572.08,207.357c-.274-.311,3.106-3.937,9.445-8.813l2.51-1.881c.878-.648,1.83-1.266,2.8-1.932,1.925-1.354,4.08-2.647,6.337-4.029A129.046,129.046,0,0,1,624.8,177.3c2.563-.659,4.991-1.308,7.3-1.749,1.153-.232,2.259-.485,3.335-.665l3.1-.494c7.913-1.16,12.869-1.065,12.9-.653.051.523-4.795,1.275-12.454,3.016l-3,.7c-1.043.243-2.113.556-3.23.843-2.239.549-4.59,1.286-7.075,2.013-4.939,1.558-10.305,3.454-15.812,5.764-5.491,2.349-10.587,4.884-15.142,7.347-2.251,1.279-4.416,2.455-6.368,3.681-.982.6-1.952,1.154-2.852,1.734l-2.589,1.67C576.331,204.8,572.419,207.756,572.08,207.357Z" transform="translate(-572.064 -173.461)" fill="#5d5f60"/>
    </g>
    <g id="Group_9761" data-name="Group 9761" transform="translate(306.298)">
      <path id="Path_9985" data-name="Path 9985" d="M648.565,161.847c.2.944-7.909,3.419-17.747,6.782-9.849,3.331-17.787,6.313-18.2,5.442-.4-.819,7.039-5.256,17.107-8.663C639.781,161.972,648.386,160.951,648.565,161.847Z" transform="translate(-612.6 -161.539)" fill="#5d5f60"/>
    </g>
    <g id="Group_9762" data-name="Group 9762" transform="translate(64.695 80.186)">
      <path id="Path_9986" data-name="Path 9986" d="M312.814,286.026c-.029.518-4.244.584-10.96,1.134l-2.633.228c-.914.08-1.862.217-2.845.324-1.968.193-4.052.536-6.249.851-4.38.726-9.163,1.688-14.113,2.99-4.941,1.338-9.568,2.887-13.727,4.441-2.062.821-4.04,1.563-5.843,2.376-.9.4-1.795.75-2.627,1.137l-2.4,1.114c-6.1,2.869-9.784,4.913-10.067,4.479-.235-.348,3.01-3.125,8.95-6.61l2.347-1.335c.821-.458,1.7-.879,2.6-1.342,1.794-.944,3.78-1.8,5.864-2.727a105.585,105.585,0,0,1,28.574-7.627c2.267-.238,4.417-.482,6.443-.557,1.011-.048,1.985-.122,2.925-.134l2.7-.012C308.646,284.817,312.844,285.608,312.814,286.026Z" transform="translate(-241.342 -284.756)" fill="#5d5f60"/>
    </g>
    <g id="Group_9763" data-name="Group 9763" transform="translate(72.1 297.499)">
      <path id="Path_9987" data-name="Path 9987" d="M256.449,618.69c.879.1.538,7.294.756,18.8q.052,2.156.107,4.512c.038,1.567.171,3.2.247,4.882.118,3.374.479,6.963.78,10.74.767,7.542,1.894,15.8,3.582,24.372,1.751,8.563,3.895,16.613,6.1,23.868,1.179,3.6,2.231,7.052,3.423,10.211.579,1.585,1.085,3.139,1.656,4.6s1.118,2.865,1.641,4.2c4.237,10.7,7.323,17.2,6.553,17.635-.619.362-5-5.465-10.3-15.96l-2.024-4.144c-.692-1.447-1.316-2.995-2.008-4.579-1.416-3.158-2.669-6.635-4.019-10.285A180.309,180.309,0,0,1,253,658.031c-.162-3.888-.347-7.579-.259-11.038.027-1.729.005-3.4.086-5s.184-3.137.269-4.6C253.942,625.662,255.738,618.594,256.449,618.69Z" transform="translate(-252.72 -618.69)" fill="#5d5f60"/>
    </g>
    <g id="Group_9764" data-name="Group 9764" transform="translate(74.419 76.471)">
      <path id="Path_9988" data-name="Path 9988" d="M283.234,279.2c.165.616-5.843,2.74-13.244,5.295s-13.449,4.562-13.7,3.975c-.243-.565,5.469-3.549,12.961-6.119S283.079,278.605,283.234,279.2Z" transform="translate(-256.283 -279.047)" fill="#5d5f60"/>
    </g>
    <g id="Group_9765" data-name="Group 9765" transform="translate(13.313 171.17)">
      <path id="Path_9989" data-name="Path 9989" d="M183.74,500.706c-.252.186-1.133-.566-2.524-2.106a51.141,51.141,0,0,1-5.236-7.024l-1.538-2.471c-.5-.877-1-1.8-1.529-2.76l-.794-1.464q-.368-.761-.749-1.546c-.5-1.052-1.035-2.123-1.524-3.25a92.113,92.113,0,0,1-5.107-15.151A74.945,74.945,0,0,1,163.125,436c1.162-7.389,3.177-11.6,3.69-11.433.684.189-.193,4.617-.5,11.744a98.176,98.176,0,0,0,2.831,27.552,121.214,121.214,0,0,0,4.563,14.626c.417,1.1.88,2.158,1.294,3.2q.316.779.624,1.534l.662,1.461,1.246,2.783L178.773,490c1.581,3.224,2.953,5.806,3.9,7.6C183.594,499.418,183.992,500.521,183.74,500.706Z" transform="translate(-162.384 -424.567)" fill="#5d5f60"/>
    </g>
    <g id="Group_9766" data-name="Group 9766" transform="translate(0 185.502)">
      <path id="Path_9990" data-name="Path 9990" d="M146.708,469.958c-.567.224-1.623-.819-2.635-2.869a24.1,24.1,0,0,1-.981-17.338c.774-2.15,1.706-3.306,2.3-3.147,1.238.368.719,5.509,1.108,11.651C146.8,464.4,147.9,469.453,146.708,469.958Z" transform="translate(-141.928 -446.59)" fill="#5d5f60"/>
    </g>
    <g id="Group_9767" data-name="Group 9767" transform="translate(452.893 28.386)">
      <path id="Path_9991" data-name="Path 9991" d="M875.137,278.125c-.668.115-1.89-4.386-4.187-11.462q-.434-1.325-.91-2.772c-.315-.962-.7-1.948-1.056-2.978-.7-2.067-1.574-4.227-2.447-6.514-1.84-4.54-4.011-9.462-6.56-14.5-2.584-5.019-5.3-9.665-7.893-13.819-1.341-2.048-2.576-4.025-3.841-5.8-.623-.895-1.2-1.782-1.792-2.6l-1.711-2.364c-4.384-6.011-7.31-9.642-6.825-10.115.406-.405,4.176,2.457,9.314,8.092l1.985,2.238c.684.784,1.344,1.641,2.05,2.511,1.432,1.728,2.821,3.68,4.3,5.727a118.966,118.966,0,0,1,14.89,29.175c.791,2.4,1.557,4.667,2.116,6.841.29,1.084.6,2.12.831,3.134l.647,2.92C875.6,273.3,875.7,278.034,875.137,278.125Z" transform="translate(-837.863 -205.158)" fill="#5d5f60"/>
    </g>
    <g id="Group_9768" data-name="Group 9768" transform="translate(477.626 40.305)">
      <path id="Path_9992" data-name="Path 9992" d="M898.036,263.743c-1.287.3-4.373-9.513-10.434-20.432-5.962-10.973-12.585-18.843-11.642-19.768.432-.418,2.694,1.041,5.721,4.09a55.511,55.511,0,0,1,4.9,5.724,66.543,66.543,0,0,1,8.873,16.157,55.507,55.507,0,0,1,2.2,7.206C898.6,260.911,898.62,263.6,898.036,263.743Z" transform="translate(-875.869 -223.473)" fill="#5d5f60"/>
    </g>
    <g id="Group_9769" data-name="Group 9769" transform="translate(51.168 335.204)">
      <path id="Path_9993" data-name="Path 9993" d="M228.636,724.365c-.564.21-2.093-2.141-3.718-6.318a60.84,60.84,0,0,1-2.327-7.508,72.943,72.943,0,0,1-2.013-19.128,60.966,60.966,0,0,1,.713-7.828c.72-4.423,1.727-7.041,2.321-6.953,1.305.2.426,10.93,1.851,23.937C226.776,713.586,229.871,723.895,228.636,724.365Z" transform="translate(-220.555 -676.629)" fill="#5d5f60"/>
    </g>
    <g id="Group_9770" data-name="Group 9770" transform="translate(493.046 175.186)">
      <path id="Path_9994" data-name="Path 9994" d="M932.8,619.018c-.46-.092-.43-2.873.012-7.787l.409-4.079c.13-1.492.211-3.121.347-4.862.226-3.487.677-7.429.778-11.819q.15-3.284.315-6.871c.1-2.386.044-4.878.086-7.449q.017-1.93.034-3.923c0-.664.024-1.334.01-2.008s-.047-1.355-.071-2.039q-.131-4.107-.269-8.444a292.321,292.321,0,0,0-13-73.826q-1.35-4.12-2.63-8.028l-.629-1.941c-.218-.638-.467-1.26-.7-1.883l-1.372-3.676c-.917-2.4-1.711-4.765-2.625-6.973s-1.8-4.326-2.642-6.35c-1.594-4.092-3.364-7.643-4.768-10.843-.722-1.589-1.354-3.092-1.986-4.451q-.974-2.026-1.777-3.694c-2.1-4.468-3.073-7.071-2.671-7.315s2.147,1.9,4.976,6.011l2.32,3.446c.811,1.283,1.618,2.717,2.513,4.246,1.749,3.079,3.852,6.542,5.759,10.578q1.48,3.008,3.1,6.292c1.061,2.2,1.995,4.557,3.046,6.967q.772,1.816,1.568,3.692c.26.627.541,1.253.79,1.9l.721,1.957q1.442,3.949,2.966,8.12a245.967,245.967,0,0,1,13.3,75.569q-.007,4.437-.014,8.645,0,1.05-.009,2.085c-.014.689-.065,1.374-.1,2.053q-.108,2.035-.214,4.005c-.165,2.624-.237,5.161-.484,7.588q-.4,3.636-.762,6.972c-.414,4.445-1.208,8.418-1.8,11.908-.319,1.743-.588,3.366-.912,4.849q-.549,2.211-1,4.032C934.167,616.5,933.258,619.11,932.8,619.018Z" transform="translate(-899.564 -430.737)" fill="#5d5f60"/>
    </g>
    <g id="Group_9771" data-name="Group 9771" transform="translate(549.851 296.234)">
      <path id="Path_9995" data-name="Path 9995" d="M987.212,664.707c-1.262-.39,1.171-10.875,1.656-23.951.6-13.071-.964-23.72.325-24.005.588-.126,1.76,2.423,2.759,6.791a60.942,60.942,0,0,1,1.209,7.767,72.986,72.986,0,0,1-.794,19.218,60.859,60.859,0,0,1-1.846,7.641C989.165,662.438,987.788,664.881,987.212,664.707Z" transform="translate(-986.853 -616.746)" fill="#5d5f60"/>
    </g>
  </g>
</svg>
